<?xml version="1.0" encoding="utf-8"?>
<!-- Generator: Adobe Illustrator 22.0.1, SVG Export Plug-In . SVG Version: 6.00 Build 0)  -->
<svg version="1.1" id="Capa_1" xmlns="http://www.w3.org/2000/svg" xmlns:xlink="http://www.w3.org/1999/xlink" x="0px" y="0px"
	 viewBox="0 0 500 500" style="enable-background:new 0 0 500 500;" xml:space="preserve">
<style type="text/css">
	.st0{fill:#071748;}
</style>
<g>
	<g>
		<g>
			<path class="st0" d="M373.8,177.7c-6.3-26.4-20.7-50.4-41.3-68.6C308.4,87.8,277.2,76,244.8,76c-73.1,0-132.5,59.4-132.5,132.5
				c0,1.2,0,2.2,0,3.4c-1.2,0-2.2-0.1-3.4-0.1c-58.5,0-106,47.5-106,106s47.5,106,106,106h264.8c67.9,0,123-55.2,123-123
				C496.9,232.9,441.7,177.7,373.8,177.7z M373.8,395H109C66.5,395,32,360.4,32,317.9s34.6-77.1,77.1-77.1c5.5,0,11,0.6,16.4,1.8
				l20.9,4.6l-3.6-21.1c-1-5.7-1.5-11.7-1.5-17.5c0-57.1,46.5-103.6,103.6-103.6c51.7,0,95.9,38.6,102.7,89.7l1.9,14l14-1.6
				c3.4-0.4,6.9-0.6,10.3-0.6c51.9,0,94.1,42.3,94.1,94.1S425.7,395,373.8,395z"/>
		</g>
	</g>
	<g>
		<g>
			<path class="st0" d="M227,311c-1.2,2.8-2.6,5.2-4.6,7.1c-1.9,1.9-3.9,3.5-6.1,4.7c-2.2,1.2-4.6,2-7,2.6c-2.4,0.6-4.8,0.9-7.1,0.9
				c-4.5,0-8.5-0.9-12.1-2.7c-3.6-1.9-6.6-4.3-9.3-7.4c-2.5-3.1-4.5-6.7-5.8-10.8c-1.4-4.1-2-8.3-2-12.7c0-4.1,0.6-8.1,1.8-12.1
				c1.2-4,2.9-7.5,5.4-10.6c2.4-3.1,5.5-5.7,9.1-7.7c3.6-1.9,7.9-2.9,12.9-2.9c2.3,0,4.7,0.2,7,0.7c2.4,0.5,4.8,1.3,7,2.5
				c2.3,1.2,4.4,2.7,6.3,4.7s3.5,4.4,4.8,7.3l19.7-13.7c-3.8-7.2-9.5-13.1-17.1-17.5c-7.7-4.5-16.7-6.7-27.1-6.7
				c-8.8,0-16.6,1.7-23.5,4.9c-6.9,3.2-12.8,7.4-17.5,12.7c-4.8,5.2-8.5,11.1-10.9,17.7c-2.5,6.6-3.8,13.2-3.8,20
				c0,7.1,1.4,14,4,20.9c2.6,6.9,6.4,13.1,11.3,18.4c4.9,5.5,10.6,9.7,17.3,13.1c6.7,3.3,14.1,5,22.1,5c4.6,0,9.3-0.6,14-1.8
				c4.8-1.2,9.4-2.8,13.6-5s8.1-4.9,11.3-8.1c3.3-3.2,5.7-6.9,7.4-10.9L227,311z"/>
		</g>
	</g>
	<g>
		<g>
			<path class="st0" d="M359.7,272.4c-2.6-6.8-6.3-12.9-11.1-18.1c-4.8-5.4-10.6-9.5-17.3-12.9c-6.8-3.2-14.3-4.9-22.5-4.9
				c-8,0-15.4,1.6-22.2,4.6c-6.8,3.1-12.7,7.2-17.6,12.4c-5,5.2-8.8,11.1-11.6,17.9c-2.7,6.8-4.2,13.8-4.2,21.1
				c0,7.2,1.4,14.1,4,20.9s6.4,12.8,11.2,18s10.6,9.5,17.3,12.8c6.8,3.2,14.3,4.9,22.5,4.9c8,0,15.4-1.6,22.2-4.7
				c6.8-3.1,12.6-7.3,17.5-12.5c4.9-5.2,8.8-11.1,11.5-17.9c2.7-6.8,4.2-13.8,4.2-21.1C363.6,286,362.3,279.1,359.7,272.4z
				 M335.7,304.8c-1.2,4-3,7.6-5.4,10.8c-2.4,3.2-5.5,5.7-9.1,7.7s-7.9,2.9-12.9,2.9c-4.7,0-8.9-1-12.5-2.8
				c-3.6-1.9-6.7-4.4-9.2-7.5c-2.4-3.1-4.3-6.7-5.6-10.7c-1.3-4-1.9-8.2-1.9-12.5c0-4.2,0.6-8.3,1.8-12.3c1.2-4,3-7.6,5.5-10.7
				c2.4-3.1,5.5-5.7,9.1-7.6c3.6-1.9,7.8-2.9,12.8-2.9c4.7,0,8.9,0.9,12.5,2.7c3.6,1.9,6.6,4.3,9.2,7.3c2.5,3.1,4.4,6.6,5.7,10.6
				c1.3,4,1.9,8.2,1.9,12.5C337.5,296.7,336.9,300.8,335.7,304.8z"/>
		</g>
	</g>
	<g>
		<g>
			<path class="st0" d="M380.3,357.9c0.5-0.5,1.1-1.1,1.9-1.7s1.8-1.3,2.8-1.9c1-0.6,2-1.2,3-1.8c1.1-0.6,1.9-1.1,2.6-1.6
				c1.1-0.7,2.1-1.4,3.1-2c1.1-0.8,1.9-1.7,2.8-2.6c0.9-1,1.5-2.1,2-3.4c0.5-1.3,0.8-2.7,0.8-4.3c0-3.9-1.4-7-4.2-9.4
				c-2.8-2.3-6.8-3.4-12.2-3.4c-2.1,0-4.2,0.2-6.2,0.6c-1.9,0.4-3.8,0.9-5.5,1.6c-1.7,0.7-3.1,1.4-4.5,2.2s-2.3,1.7-3.1,2.5l7.5,8.7
				c1.5-1.7,2.9-2.9,4.4-3.9c1.6-1,3.3-1.5,5.4-1.5c1.9,0,3.2,0.4,4.2,1.3c1,0.9,1.5,1.9,1.5,3.3c0,0.7-0.2,1.3-0.6,1.8
				c-0.4,0.5-1.1,1.1-1.9,1.8c-0.9,0.7-2.1,1.4-3.7,2.2c-1.6,0.9-3.5,1.9-5.7,3.1c-2.1,1.3-3.9,2.4-5.4,3.7
				c-1.5,1.3-2.5,2.6-3.4,4.2c-0.9,1.5-1.5,3.1-1.8,5c-0.4,1.9-0.5,3.9-0.5,6.1h36.5v-10.5L380.3,357.9L380.3,357.9z"/>
		</g>
	</g>
</g>
</svg>
