<?xml version="1.0" encoding="utf-8"?>
<!-- Generator: Adobe Illustrator 22.0.1, SVG Export Plug-In . SVG Version: 6.00 Build 0)  -->
<svg version="1.1" id="Camada_1" xmlns="http://www.w3.org/2000/svg" xmlns:xlink="http://www.w3.org/1999/xlink" x="0px" y="0px"
	 viewBox="0 0 500 500" style="enable-background:new 0 0 500 500;" xml:space="preserve">
<style type="text/css">
	.st0{fill:#071748;}
</style>
<g>
	<path class="st0" d="M250,497.5c136.7,0,247.5-110.8,247.5-247.5S386.7,2.5,250,2.5S2.5,113.3,2.5,250
		C2.7,386.6,113.4,497.3,250,497.5z M250,19c127.6,0,231,103.4,231,231S377.6,481,250,481S19,377.6,19,250
		C19.1,122.5,122.5,19.1,250,19z"/>
	<path class="st0" d="M192.6,276.7c3.2-29.3,27.9-51.5,57.4-51.5s54.2,22.2,57.4,51.5c0.9,8.3,8,14.6,16.3,14.5h114.4
		c8.2,0,15.2-6,16.4-14.1c1.2-9,1.8-18,1.8-27.1c0-113.9-92.3-206.3-206.2-206.3S43.8,136,43.8,249.9c0,9.1,0.6,18.2,1.8,27.2
		c1.2,8.1,8.1,14.2,16.4,14.2h114.4C184.6,291.3,191.7,285,192.6,276.7z M294.3,223.4l41.1-28.1c0.7-0.4,1.5-0.3,2.1,0.3
		c0.5,0.6,0.6,1.5,0.1,2.1l-28.1,41.1C305.3,232.9,300.1,227.7,294.3,223.4z M61.9,274.9c-1.1-8.3-1.7-16.6-1.7-25
		c0-67.8,36.2-130.4,94.9-164.3s131.1-33.9,189.7,0.1s94.8,96.6,94.8,164.4c0,8.3-0.5,16.5-1.6,24.8h-0.1L323.8,275
		c-0.7-7-2.5-13.8-5.1-20.3l32.6-47.7c5-7.2,4.1-16.9-2-23.2c-6.2-6.2-15.9-7.1-23.1-2.2l-47.8,32.7c-21.5-8.9-46-7.1-66.1,4.7
		c-20.1,11.9-33.4,32.5-35.9,55.7L61.9,274.9z"/>
	<path class="st0" d="M259.6,323c2.2-0.5,4.4-1.2,6.4-2c0.2-0.1,0.3-0.2,0.5-0.3c4.7-2,9-5,12.7-8.6c0.8-0.8,1.4-1.7,2.1-2.5
		c1.1-1.2,2.1-2.4,3-3.7c0.7-1.1,1.3-2.3,1.9-3.5c0.7-1.2,1.3-2.4,1.9-3.6c0.5-1.1,0.7-2.3,1.1-3.4c0.5-1.4,0.9-2.9,1.3-4.4
		c0.2-1.2,0.2-2.4,0.4-3.6c0.2-1.5,0.4-2.9,0.4-4.4c-0.1-1.5-0.2-2.9-0.4-4.4c-0.1-1.2-0.1-2.4-0.4-3.6c-0.3-1.5-0.8-3-1.3-4.4
		c-0.4-1.1-0.6-2.3-1.1-3.4c-0.6-1.2-1.2-2.5-1.9-3.6c-0.6-1.2-1.2-2.4-1.9-3.5c-0.9-1.3-1.9-2.5-3-3.7c-0.7-0.8-1.3-1.7-2.1-2.5
		c-3.6-3.6-7.9-6.5-12.7-8.6c-0.2-0.1-0.3-0.2-0.5-0.3c-2.1-0.8-4.2-1.5-6.4-2c-0.5-0.1-0.9-0.3-1.3-0.4c-5.4-1.1-11.1-1.1-16.5,0
		c-0.5,0.1-0.9,0.3-1.3,0.4c-2.2,0.5-4.3,1.2-6.4,2c-0.2,0.1-0.3,0.2-0.5,0.3c-4.7,2-9,5-12.7,8.6c-0.8,0.8-1.4,1.7-2.1,2.5
		c-1.1,1.2-2.1,2.4-3,3.7c-0.7,1.1-1.3,2.3-1.9,3.5c-0.7,1.2-1.3,2.4-1.9,3.6c-0.5,1.1-0.7,2.3-1.1,3.4c-0.5,1.4-0.9,2.9-1.3,4.4
		c-0.2,1.2-0.2,2.4-0.4,3.6c-0.2,1.5-0.4,2.9-0.4,4.4c0.1,1.5,0.2,3,0.4,4.4c0.1,1.2,0.1,2.4,0.4,3.6c0.3,1.5,0.8,3,1.3,4.4
		c0.4,1.1,0.6,2.3,1.1,3.4c0.6,1.2,1.2,2.5,1.9,3.6c0.6,1.2,1.2,2.4,1.9,3.5c0.9,1.3,1.9,2.5,3,3.7c0.7,0.8,1.3,1.7,2.1,2.5
		c3.6,3.6,7.9,6.5,12.7,8.6c0.2,0.1,0.3,0.2,0.5,0.3c2.1,0.8,4.2,1.5,6.4,2c0.5,0.1,0.9,0.3,1.3,0.4c5.4,1.1,11.1,1.1,16.5,0
		C258.7,323.3,259.1,323.1,259.6,323z M233.3,301.1c-0.7-0.7-1.4-1.4-2.1-2.2c-0.6-0.7-1.2-1.4-1.8-2.2c-0.4-0.7-0.8-1.4-1.2-2.2
		c-0.4-0.7-0.8-1.4-1.1-2.1s-0.4-1.4-0.7-2.2c-0.3-0.8-0.5-1.6-0.7-2.5c-0.1-0.8-0.2-1.7-0.3-2.5c-0.1-1.5-0.1-3,0-4.5
		c0-0.9,0.1-1.7,0.3-2.5s0.4-1.7,0.7-2.5c0.2-0.7,0.4-1.5,0.7-2.2s0.7-1.4,1.1-2.1c0.4-0.8,0.8-1.5,1.2-2.2c0.6-0.8,1.1-1.5,1.8-2.2
		c2.4-2.9,5.5-5.2,8.9-6.7c0.1-0.1,0.2-0.1,0.3-0.1c1.3-0.5,2.5-0.9,3.9-1.2c0.3-0.1,0.5-0.2,0.8-0.2c3.3-0.7,6.6-0.7,9.9,0
		c0.3,0,0.5,0.2,0.8,0.2c1.3,0.3,2.6,0.7,3.9,1.2c0.1,0,0.2,0.1,0.3,0.2c3.4,1.5,6.5,3.8,8.9,6.7c0.6,0.7,1.2,1.4,1.8,2.2
		c0.4,0.7,0.8,1.4,1.2,2.2c0.4,0.7,0.8,1.4,1.1,2.1s0.4,1.4,0.7,2.2c0.3,0.8,0.5,1.6,0.7,2.5c0.2,0.8,0.2,1.7,0.3,2.6
		c0.1,1.5,0.1,2.9,0,4.4c-0.1,0.9-0.1,1.8-0.3,2.6c-0.2,0.8-0.4,1.7-0.7,2.5c-0.2,0.7-0.4,1.5-0.7,2.2c-0.3,0.7-0.7,1.4-1.1,2.1
		c-0.4,0.8-0.8,1.5-1.2,2.2c-0.6,0.7-1.1,1.5-1.8,2.2c-4.3,5.2-10.6,8.4-17.3,8.8C244.8,308.1,238.2,305.8,233.3,301.1L233.3,301.1z
		"/>
	<path class="st0" d="M151.1,139.4c8.6-7.8,18.1-14.5,28.3-20c2-1.1,4.1-2.2,6.3-3.2l6.2,15c1.3,3.1,4.3,5.1,7.6,5.1
		c1.1,0,2.2-0.2,3.2-0.6c2-0.8,3.6-2.4,4.5-4.5c0.8-2,0.8-4.3,0-6.3l-6.2-15c6.3-2.3,12.8-4.1,19.3-5.4c2.4-0.5,4.8-0.9,7.2-1.3
		c0.2,0,0.3-0.1,0.5-0.1c4.4-0.6,8.8-1.1,13.2-1.4h0.6V118c0,4.6,3.7,8.3,8.2,8.3c4.6,0,8.3-3.7,8.3-8.3v-16.3h0.5
		c4.5,0.3,9,0.8,13.3,1.4l0.5,0.1c2.5,0.4,4.8,0.8,7.4,1.3c6.5,1.3,12.9,3.1,19.1,5.4l-6.2,15c-0.8,2-0.8,4.3,0,6.3s2.4,3.6,4.5,4.5
		c1,0.4,2.1,0.6,3.2,0.6c3.3,0,6.3-2,7.6-5.1l6.2-15h0.1c2.1,1,4.2,2.1,6.3,3.3c10.1,5.5,19.6,12.2,28.2,20l-11.4,11.4
		c-3.2,3.2-3.2,8.4,0,11.7c3.2,3.2,8.5,3.2,11.7,0l11.4-11.5c7.8,8.6,14.5,18.1,20,28.3c1.1,2,2.2,4.1,3.2,6.3l-15,6.2
		c-4.2,1.7-6.2,6.6-4.5,10.8s6.6,6.2,10.8,4.5l15-6.2c2.3,6.3,4.1,12.7,5.4,19.3c0.5,2.4,0.9,4.8,1.3,7.2c0,0.1,0.1,0.3,0.1,0.5
		c0.6,4.4,1.1,8.8,1.4,13.3v0.6H382c-4.6,0-8.3,3.7-8.3,8.3s3.7,8.3,8.3,8.3h24.7c4.6,0,8.3-3.7,8.3-8.3c0-3.3-0.1-6.6-0.3-9.9
		c-0.3-5-0.9-9.9-1.6-14.7c0-0.2-0.1-0.5-0.1-0.7c-0.4-2.8-0.9-5.4-1.4-7.9c-1.5-7.6-3.6-15.1-6.3-22.3c-0.8-2.4-1.7-4.7-2.7-7
		c0-0.1-0.1-0.3-0.1-0.4c0-0.1,0-0.1,0-0.2c0-0.1-0.1-0.1-0.1-0.2c-1.1-2.8-2.4-5.5-3.6-8s-2.4-4.9-3.7-7.2
		c-7.5-13.9-17-26.6-28.2-37.8c-0.1-0.1-0.1-0.2-0.2-0.3s-0.2-0.1-0.3-0.2c-11.1-11.2-23.8-20.6-37.7-28.1c-2.4-1.3-4.8-2.6-7.2-3.7
		c-2.6-1.3-5.4-2.5-8.2-3.6c-0.1,0-0.1-0.1-0.2-0.1s-0.1,0-0.2,0l-0.4-0.2c-2.2-1-4.4-1.9-6.7-2.6c-7.3-2.7-14.8-4.8-22.4-6.3
		c-2.7-0.6-5.3-1-8.1-1.5c-0.2-0.1-0.5-0.1-0.8-0.1c-4.8-0.7-9.7-1.2-14.8-1.6c-6.5-0.4-13.1-0.4-19.7,0c-5,0.3-9.9,0.9-14.7,1.5
		c-0.3,0-0.5,0.1-0.7,0.1c-2.8,0.4-5.4,0.8-7.9,1.4c-7.6,1.5-15.1,3.6-22.3,6.3c-2.4,0.8-4.7,1.7-7,2.7l-0.4,0.2c-0.1,0-0.1,0-0.2,0
		s-0.1,0.1-0.2,0.1c-2.8,1.1-5.5,2.4-8.1,3.6c-2.5,1.2-4.9,2.4-7.2,3.7c-13.9,7.5-26.6,17-37.8,28.2c-0.1,0.1-0.2,0.1-0.3,0.2
		s-0.1,0.2-0.2,0.3c-11.2,11.1-20.6,23.9-28.1,37.7c-1.3,2.4-2.6,4.8-3.7,7.2c-1.3,2.7-2.6,5.6-3.5,7.9l-0.1,0.2
		c0,0.1-0.1,0.1-0.1,0.2c0,0.1,0,0.2-0.1,0.3c0,0.1-0.1,0.2-0.2,0.4c-1,2.2-1.8,4.4-2.6,6.7c-2.7,7.3-4.8,14.8-6.3,22.4
		c-0.6,2.7-1,5.3-1.5,8.1c0,0.2-0.1,0.5-0.1,0.7c-0.7,4.8-1.2,9.7-1.5,14.8c-0.2,3.2-0.3,6.5-0.3,9.8c0,4.6,3.7,8.3,8.3,8.3H118
		c4.6,0,8.3-3.7,8.3-8.3s-3.7-8.3-8.3-8.3h-16.3c0-0.2,0-0.3,0-0.5c0.3-4.5,0.8-9,1.4-13.4c0-0.1,0.1-0.3,0.1-0.5
		c0.4-2.5,0.8-4.8,1.3-7.4c1.3-6.5,3.1-12.9,5.4-19.1l15,6.2c2.7,1.1,5.8,0.7,8.2-1.1c2.3-1.8,3.5-4.7,3.2-7.6
		c-0.4-2.9-2.3-5.4-5-6.5l-15-6.2v-0.1c1-2.1,2.1-4.2,3.3-6.3c5.5-10.1,12.2-19.6,20-28.2l11.4,11.4c3.2,3.2,8.4,3.2,11.7,0
		c3.2-3.2,3.2-8.5,0-11.7L151.1,139.4z"/>
	<path class="st0" d="M184,357.3c4.6,0,8.2-3.7,8.2-8.3c0-4.6-3.7-8.2-8.2-8.2h-16.5c-9.1,0-16.5,7.4-16.5,16.5V415
		c0,4.6,3.7,8.2,8.2,8.2c4.6,0,8.3-3.7,8.3-8.2v-24.8H184c4.6,0,8.2-3.7,8.2-8.2c0-4.6-3.7-8.3-8.2-8.3h-16.5v-16.5L184,357.3
		L184,357.3z"/>
	<path class="st0" d="M241.7,340.8c-4.6,0-8.2,3.7-8.2,8.2v49.5c0,4.6-3.7,8.2-8.3,8.2s-8.2-3.7-8.2-8.2V349c0-4.6-3.7-8.2-8.3-8.2
		s-8.2,3.7-8.2,8.2v49.5c0,13.7,11.1,24.7,24.7,24.7c13.7,0,24.8-11.1,24.8-24.7V349C250,344.4,246.3,340.8,241.7,340.8z"/>
	<path class="st0" d="M291.3,357.3c4.6,0,8.2-3.7,8.2-8.3c0-4.6-3.7-8.2-8.2-8.2h-16.5c-9.1,0-16.5,7.4-16.5,16.5v49.5
		c0,9.1,7.4,16.5,16.5,16.5h16.5c4.6,0,8.2-3.7,8.2-8.2c0-4.6-3.7-8.3-8.2-8.3h-16.5v-16.5h16.5c4.6,0,8.2-3.7,8.2-8.2
		c0-4.6-3.7-8.3-8.2-8.3h-16.5v-16.5H291.3z"/>
	<path class="st0" d="M349,406.7h-24.7V349c0-4.6-3.7-8.2-8.3-8.2c-4.6,0-8.2,3.7-8.2,8.2v66c0,4.6,3.7,8.2,8.2,8.2h33
		c4.6,0,8.3-3.7,8.3-8.2C357.3,410.4,353.6,406.7,349,406.7z"/>
</g>
</svg>
