<?xml version="1.0" encoding="utf-8"?>
<!-- Generator: Adobe Illustrator 22.0.1, SVG Export Plug-In . SVG Version: 6.00 Build 0)  -->
<svg version="1.1" id="Camada_1" xmlns="http://www.w3.org/2000/svg" xmlns:xlink="http://www.w3.org/1999/xlink" x="0px" y="0px"
	 viewBox="0 0 300 270" style="enable-background:new 0 0 300 270;" xml:space="preserve">
<style type="text/css">
	.st0{fill:#FFFFFF;}
</style>
<g>
	<path class="st0" d="M299.4,229.7c-4.5-24.2-9.1-48.4-13.6-72.5c-1.9-10.1-3.9-20.1-5.9-30.4c-6.3,0-12.2-0.1-18,0
		c-6,0.1-10.2,3.8-10.2,9.1c-0.1,5.1,3.6,8.8,9.5,9.1c2.6,0.1,3.5,1,3.9,3.5c2.7,14.7,5.5,29.4,8.4,44c0.6,2.7-0.2,4.4-2.5,6
		c-6.5,4.6-13,9.2-19.3,14c-2.5,1.9-4.5,2-7.3,0.9c-51.7-22-103.5-43.9-155.3-65.9c-1.1-0.5-2.3-1.2-3.3-1.8
		c9.8-0.7,19.4-0.7,28.9-0.7c6.4,0,12.7,0.1,19.1-0.1c5.2-0.2,8.9-3.8,9.1-8.6c0.2-4.9-3.5-9-8.8-9.5c-1.1-0.1-2.2-0.1-3.3-0.1
		c-34.6,0-69.4,0-104,0c-1.5,0-3.1,0-5.2,0C14.4,174.4,7.4,221.8,0.1,270c2.5,0,4.2,0,5.9,0c85.1,0,170.2,0,255.3,0
		c2.2,0,4.5,0,6.7-0.2C287.8,268.3,302.9,249,299.4,229.7z M22.6,253.2c-0.5-0.5-1-1-1.5-1.5c5.2-35.3,10.6-70.5,16-106.7
		c19.8,8.2,39.1,16.3,59.1,24.6c-7.1,8.2-13.7,15.9-20.3,23.8C60,212,44.1,230.6,28.1,249.1C26.6,250.7,24.4,251.9,22.6,253.2z
		 M173,252.8c-39.1-1-78.3-0.4-117.4-0.4c-1.7,0-3.5,0-6.6,0c3.8-4.5,6.9-8.1,9.9-11.6c17.3-19.9,34.5-39.9,51.7-59.9
		c1.6-1.9,2.8-3.3,5.9-2c37.4,15.8,74.9,31.6,112.3,47.3c0.4,0.2,0.8,0.5,1.7,1.1c-5.3,3.9-11,7.2-15.7,11.5
		C203,250.1,189.3,253.2,173,252.8z M264.7,252.3c-11.8,0.4-23.8,0.1-36.2-0.8c16.4-11.9,32.7-23.8,49.8-36.2
		c1.3,7.1,3,13.3,3.6,19.6C282.8,243.3,274.2,252.1,264.7,252.3z"/>
	<path class="st0" d="M193,0.3c-45.7,3.9-81.4,55-56.9,100.8c16.7,31.3,39,58.2,63.9,84.7c8.7-9.8,17.1-18.9,25-28.4
		c15.6-18.7,30.2-38.2,40.3-60.5c3.7-8.1,6.4-16.5,6.4-25.7C271.5,29.3,235-3.3,193,0.3z M199.9,94c-12.8,0-23.7-11-23.7-23.8
		s11.1-23.8,23.9-23.6c12.7,0.2,23.3,10.8,23.4,23.5C223.6,82.9,212.7,94,199.9,94z"/>
</g>
</svg>
