<?xml version="1.0" encoding="utf-8"?>
<!-- Generator: Adobe Illustrator 22.0.1, SVG Export Plug-In . SVG Version: 6.00 Build 0)  -->
<svg version="1.1" id="Capa_1" xmlns="http://www.w3.org/2000/svg" xmlns:xlink="http://www.w3.org/1999/xlink" x="0px" y="0px"
	 viewBox="0 0 500 500" style="enable-background:new 0 0 500 500;" xml:space="preserve">
<style type="text/css">
	.st0{fill:#071748;}
</style>
<g>
	<path class="st0" d="M489.3,134.2l-87.5-87.5c-12.7-12.7-32.5-14.2-47-3.5L307.5,78c-1.7,1.3-2.8,3.2-3,5.3s0.6,4.2,2.1,5.7
		l11.4,11.4l-50,50.2h-36l-50.1-50.1l11.4-11.4c1.5-1.5,2.3-3.6,2.1-5.7s-1.2-4.1-3-5.3l-47.3-34.9c-14.5-10.7-34.3-9.2-47,3.5
		L84.3,60.6c-2.9,2.9-2.9,7.5,0,10.4s7.5,2.9,10.4,0l13.9-13.9c7.6-7.6,19.3-8.5,28-2.1l15.7,11.6L30.5,188.3l-11.6-15.7
		c-6.4-8.6-5.5-20.4,2.1-28l53-53c2.9-2.9,2.9-7.5,0-10.4s-7.5-2.9-10.4,0l-53,53c-12.7,12.7-14.2,32.5-3.5,47L42,228.6
		c1.3,1.7,3.2,2.8,5.3,3c0.2,0,0.4,0,0.5,0c1.9,0,3.8-0.8,5.2-2.1L64.5,218l8.5,8.5c-18,15.5-28.5,38-28.5,62
		c0,39.3,28,72.8,66,80.2c4.1,21.9,19.7,39.8,40.3,47.2v26.3c0,12,9.8,21.8,21.8,21.8c9.5,0,17.5-6.1,20.5-14.5h10.5
		c3,8.4,11.1,14.5,20.5,14.5c9.5,0,17.5-6.1,20.5-14.5h10.5c3,8.4,11.1,14.5,20.5,14.5c9.5,0,17.5-6.1,20.5-14.5h10.5
		c3,8.4,11.1,14.5,20.5,14.5c12,0,21.8-9.8,21.8-21.8v-57.6c11.5-1.6,21.8-6.8,29.7-14.5c14.6-0.9,28.7-5.7,40.8-14
		c3.3-2.3,4.2-6.8,1.9-10.2c-2.3-3.3-6.8-4.2-10.2-1.9c-6.4,4.4-13.5,7.6-21,9.5c2.4-5.3,3.9-11,4.4-17c18.9-8.3,31.3-27,31.3-48
		c0-16.3-7.5-31.3-20-41.1l10.4-10.4c15.3,12.7,24.2,31.6,24.2,51.6c0,13.1-3.8,25.8-11,36.7c-2.2,3.4-1.3,7.9,2.1,10.1
		c1.2,0.8,2.6,1.2,4,1.2c2.4,0,4.7-1.2,6.1-3.3c8.7-13.3,13.4-28.8,13.4-44.7c0-23.9-10.5-46.5-28.5-61.9l8.5-8.5l11.4,11.4
		c1.4,1.4,3.2,2.1,5.2,2.1c0.2,0,0.4,0,0.5,0c2.1-0.2,4.1-1.2,5.3-3l34.9-47.3C503.6,166.8,502.1,147,489.3,134.2L489.3,134.2z
		 M371.3,201.9c0-1.8,0.7-3.6,2-4.9l20.6-20.6l9.7,9.7L383,206.7c-1.3,1.3-3,2-4.9,2s-3.6-0.7-4.9-2
		C372,205.4,371.3,203.7,371.3,201.9L371.3,201.9z M353.2,135.6l6.5,6.5L339,162.7c-1.3,1.3-3,2-4.9,2c-1.8,0-3.6-0.7-4.9-2
		c-2.7-2.7-2.7-7,0-9.7l20.6-20.6L353.2,135.6z M328.4,110.9l11.2,11.2L319,142.7c-8.4,8.4-8.4,22,0,30.4c4.1,4.1,9.5,6.3,15.2,6.3
		c5.8,0,11.2-2.2,15.2-6.3l20.6-20.6l13.6,13.6L363,186.7c-4.1,4.1-6.3,9.5-6.3,15.2s2.2,11.2,6.3,15.2c4.1,4.1,9.5,6.3,15.2,6.3
		s11.2-2.2,15.2-6.3l20.6-20.6l11.2,11.2l-47,47l-96.8-96.8L328.4,110.9z M297.6,385.1h8v49.7h-8V385.1z M247.3,370.5l41.3-40.5
		c0,0.6,0,1.3,0,1.9c0,15.2,6.4,28.9,16.7,38.6H247.3z M194.5,415.2c2.7-1.1,5.4-2.3,7.9-3.8v23.3h-7.9V415.2z M246,385.1h8v49.7h-8
		V385.1z M234,363c0.2-2,0.3-3.9,0.3-6c0-34.4-28-62.4-62.4-62.4c-1.3,0-2.7,0.1-4,0.1l40.8-39.9c1.5,21.5,19.5,38.5,41.3,38.5
		c22.9,0,41.4-18.6,41.4-41.4c0-1,0-1.9-0.1-2.9l42,30.3c-11.3,1.8-21.4,7.2-29.1,14.9l0,0L234,363z M104.2,257.7l11.2,11.2
		l13.7,42.6c-4.3,4-8,8.7-11,13.8c-17-3.8-29.7-19.1-29.7-36.9C88.4,276.1,94.4,264.8,104.2,257.7z M250,225.1
		c14.8,0,26.8,12,26.8,26.8s-12,26.8-26.8,26.8s-26.8-12-26.8-26.8C223.2,237.1,235.2,225.1,250,225.1L250,225.1z M364.4,283.6
		c0,0-88.5-64-89.6-64.8c-6.9-5.2-15.5-8.3-24.9-8.3c-10.8,0-20.6,4.1-28,10.9l-81,79.2L130.2,267L232,165.2h36L369.8,267
		L364.4,283.6C364.5,283.6,364.4,283.6,364.4,283.6L364.4,283.6z M106.1,176.4l20.6,20.6c1.3,1.3,2,3,2,4.9s-0.7,3.6-2,4.9
		c-1.3,1.3-3,2-4.9,2c-1.8,0-3.6-0.7-4.9-2l-20.6-20.6L106.1,176.4z M48.7,213l-9.4-12.8L164.2,75.3l12.8,9.4L48.7,213z M86,196.5
		l20.6,20.6c4.1,4.1,9.5,6.3,15.2,6.3c5.8,0,11.2-2.2,15.2-6.3c4.1-4.1,6.3-9.5,6.3-15.2s-2.2-11.2-6.3-15.2L116.4,166l0.2-0.2
		l13.4-13.4l20.6,20.6c4.1,4.1,9.5,6.3,15.2,6.3c5.8,0,11.2-2.2,15.2-6.3c8.4-8.4,8.4-22,0-30.4L160.4,122l11.2-11.2l47,47
		l-96.8,96.8l-47-47L86,196.5z M150.1,132.4l20.6,20.6c2.7,2.7,2.7,7,0,9.7c-1.3,1.3-3,2-4.9,2s-3.6-0.7-4.9-2l-20.6-20.6
		L150.1,132.4z M59.1,288.4c0-20,9-38.9,24.2-51.6l10.4,10.4c-12.5,9.8-20,24.9-20,41.1c0,13.1,4.9,25.7,13.8,35.4
		c6.7,7.3,15.2,12.5,24.5,15.1c-1.4,4.6-2.3,9.5-2.6,14.5C80.3,345.9,59.1,319.4,59.1,288.4z M124.1,357.1
		c0-26.4,21.4-47.8,47.8-47.8s47.8,21.4,47.8,47.8s-21.4,47.8-47.8,47.8S124.1,383.4,124.1,357.1z M172.6,449.3
		c-3.9,0-7.2-3.2-7.2-7.2v-23c2.1,0.2,4.2,0.3,6.4,0.3c2.7,0,5.3-0.2,8-0.5v23.2C179.8,446.1,176.6,449.3,172.6,449.3z M224.2,449.3
		c-3.9,0-7.2-3.2-7.2-7.2v-42l14.3-14.1v56C231.4,446.1,228.2,449.3,224.2,449.3L224.2,449.3z M275.8,449.3c-4,0-7.2-3.2-7.2-7.2
		v-57h14.3v57C282.9,446.1,279.7,449.3,275.8,449.3z M327.4,449.3c-4,0-7.2-3.2-7.2-7.2v-57h14.3v57
		C334.5,446.1,331.3,449.3,327.4,449.3z M341.8,370.5c-21.3,0-38.6-17.3-38.6-38.6c0-21.3,17.3-38.6,38.6-38.6
		c21.3,0,38.6,17.3,38.6,38.6C380.5,353.1,363.1,370.5,341.8,370.5z M411.6,288.4c0,13.2-6.8,25.2-17.7,32
		c-2.4-11.2-8.4-21.1-16.7-28.5l7.4-23l11.2-11.2C405.6,264.8,411.6,276.1,411.6,288.4L411.6,288.4z M451.3,213L323,84.8l12.8-9.4
		l124.9,124.9L451.3,213z M481.1,172.6l-11.6,15.7L347.7,66.6L363.5,55c8.6-6.4,20.4-5.5,28,2.1l87.5,87.5
		C486.6,152.2,487.5,163.9,481.1,172.6L481.1,172.6z"/>
	<path class="st0" d="M194,357.1c0-12.2-9.9-22.1-22.1-22.1c-12.2,0-22.1,9.9-22.1,22.1s9.9,22.1,22.1,22.1
		C184,379.2,194,369.2,194,357.1z M164.4,357.1c0-4.1,3.3-7.5,7.5-7.5c4.1,0,7.5,3.3,7.5,7.5c0,4.1-3.3,7.5-7.5,7.5
		C167.8,364.5,164.4,361.2,164.4,357.1z"/>
	<path class="st0" d="M341.8,309.7c-12.2,0-22.1,9.9-22.1,22.1s9.9,22.1,22.1,22.1s22.1-9.9,22.1-22.1S354,309.7,341.8,309.7z
		 M341.8,339.3c-4.1,0-7.5-3.3-7.5-7.5c0-4.1,3.3-7.5,7.5-7.5s7.5,3.3,7.5,7.5C349.3,335.9,345.9,339.3,341.8,339.3z"/>
</g>
</svg>
