<?xml version="1.0" encoding="utf-8"?>
<!-- Generator: Adobe Illustrator 22.0.1, SVG Export Plug-In . SVG Version: 6.00 Build 0)  -->
<svg version="1.1" id="Camada_1" xmlns="http://www.w3.org/2000/svg" xmlns:xlink="http://www.w3.org/1999/xlink" x="0px" y="0px"
	 viewBox="0 0 300 270" style="enable-background:new 0 0 300 270;" xml:space="preserve">
<style type="text/css">
	.st0{fill:#FFFFFF;}
</style>
<path class="st0" d="M271.1,63.5c-3.8-4.2-8-8.2-12.1-12.1c-10-9.4-25.2-9.6-35.3-0.4c-7.1,6.5-13.8,13.6-20.7,20.3
	c-1,1-2.7,1.6-4.1,1.7c-4.3,0.2-8.8,0.1-13.4,0.1c0-6.9,0-13.5,0-20.3c5.3,0,10.8,0,16.7,0c0-1.3,0-2.3,0-3.3c0-15.2,0-30.5,0-45.8
	c0-1.1,0.1-2.1,0.1-3.1c-34.9,0-69.8,0-104.7,0c0.1,1.9,0.1,3.8,0.1,5.7c0,14.3,0,28.6,0,42.9c0,1.1,0,2.1,0,3.3
	c5.7,0,11.1,0,16.7,0c0,6.9,0,13.5,0,20.5c-5.1,0-10.2,0.1-15.2-0.1c-0.7,0-1.5-0.9-2.1-1.5C91,65.3,84.8,59.1,78.5,52.9
	C66.7,41.3,51.1,41.3,39.3,53c-3.1,3.1-6.3,6.2-9.3,9.3c-10.5,10.8-10.6,26.4,0,37c3.7,3.7,5.5,6.4,3.7,12.3
	c-3.1,10.1,0.8,18.9,8.8,25.8c0.6,0.5,1.2,1.1,1.9,1.4c5.6,2.6,7,6.8,6.7,12.8c-0.5,12.9-0.1,25.8-0.2,38.7c0,1.8,0.5,3,1.8,4.4
	c10.8,10.7,21.6,21.5,32.4,32.1c1.7,1.7,2.4,3.3,2.4,5.7c-0.1,4.1-0.1,8.2,0,12.3c0.4,13.7,11.5,24.9,25.3,25
	c24.8,0.2,49.5,0.2,74.3,0c13.8-0.1,24.9-11.3,25.3-25c0.1-4.2,0.1-8.4,0-12.6c-0.1-2.2,0.6-3.7,2.1-5.3
	c10.8-10.6,21.6-21.5,32.4-32.1c1.4-1.4,2-2.8,1.9-4.8c-0.1-14.7,0-29.5-0.1-44.2c0-1.7,0.4-2.8,1.9-3.7c2-1.3,3.9-2.7,5.8-4.2
	c9.8-7.4,13.3-19.6,8.5-31c-0.6-1.5-0.4-2.3,0.7-3.3c2.2-2.1,4.5-4.3,6.4-6.7C280.2,87.2,279.8,72.8,271.1,63.5z M113.9,36.7
	c0-6.8,0-13.5,0-20.3c24.3,0,48.2,0,72.3,0c0,6.7,0,13.5,0,20.3C162,36.7,138.1,36.7,113.9,36.7z M169.3,52.7c0,6.7,0,13.3,0,20.1
	c-12.8,0-25.5,0-38.5,0c0-6.8,0-13.4,0-20.1C143.7,52.7,156.4,52.7,169.3,52.7z M98,89.5c0.5-0.5,1.6-0.6,2.4-0.6
	c33.1,0,66.1,0,99.2,0c0.8,0,1.9,0.1,2.4,0.6c4.1,4,8.1,8,12.5,12.3c-5.5,2.9-10.7,5.6-15.9,8.3c-15.5,8.1-31.1,16.2-46.6,24.2
	c-1,0.5-2.6,0.7-3.6,0.2c-20.7-10.6-41.2-21.4-61.8-32.2c-0.2-0.1-0.4-0.3-1-0.6C89.9,97.5,93.9,93.4,98,89.5z M219,130.7
	c2.1,3.3,5.2,6,8,9.1c-13.5,9.7-27.4,19.7-41.4,29.7c-4.7-16.2-4.7-16.2-15.1-27c14.8-7.7,29.5-15.4,43.9-22.9
	C215.9,123.5,216.9,127.4,219,130.7z M169.4,171.4c0.1,10.6-8.6,19.2-19.3,19.3c-10.6,0.1-19.4-8.4-19.5-19.1
	c-0.1-10.6,8.8-19.5,19.4-19.5C160.6,152.2,169.3,160.9,169.4,171.4z M129.8,142.7c-9.1,6.9-14.1,15.7-15.1,27.1
	c-14.2-10.2-28-20.1-41.7-29.9c2.7-3,5.8-5.7,7.9-9c2.1-3.3,3.1-7.3,4.7-11.2C100,127.2,114.8,134.8,129.8,142.7z M45.9,92.9
	c-1.9-1.6-3.6-3.3-5.2-5.2c-3.6-4-3.5-9.3,0.1-13.4c4.1,4.1,8.1,8.2,11.9,12c4.1-4,7.7-7.7,11.3-11.3C60.2,71.4,56,67.4,52,63.4
	c2.8-4,9.3-4.3,13.1-1.3c0.7,0.6,1.4,1.1,1.9,1.8c5.6,5.6,11.3,11.2,17.2,17C80,85.1,76,89.1,71.9,93c-0.4,0.4-1.6,0.6-2.3,0.3
	c-7.1-3-14.2-2.9-21.3,0C47.6,93.6,46.4,93.3,45.9,92.9z M58.6,127.3c-5.5-0.2-10-4.8-9.9-10.3c0.1-5.7,5-10.3,10.6-10.1
	c5.6,0.2,10,4.9,9.8,10.6C69,123.1,64.2,127.5,58.6,127.3z M233,185.4c0,0.9-0.9,1.8-1.6,2.6c-11,11-22.1,22-33,33
	c-1,1-1.6,2.7-1.7,4c-0.2,6-0.1,12.1-0.1,18.1c-0.1,6.8-4.2,11-11,11c-23.7,0-47.5,0-71.1,0c-6.9,0-11-4.1-11.1-10.9
	c-0.1-5.8-0.1-11.6,0.1-17.4c0.1-2.3-0.6-3.9-2.2-5.5c-10.8-10.6-21.6-21.4-32.4-32.1c-1.3-1.3-1.9-2.5-1.9-4.3
	c0.1-9.4,0.1-18.9,0.1-28.7c0.8,0.5,1.4,0.7,1.9,1.1c20.1,14.4,40.2,28.8,60.2,43.3c12.8,9.3,29.9,8.9,42.8-0.6
	c19.9-14.6,40.1-28.9,60.1-43.3c0.2-0.1,0.4-0.2,1.1-0.6C233.1,165.5,233.2,175.5,233,185.4z M241.1,127.4
	c-5.6,0-10.2-4.5-10.2-10.2s4.6-10.2,10.2-10.2s10.3,4.7,10.3,10.2C251.4,122.7,246.7,127.4,241.1,127.4z M259.5,87.5
	c-1.6,1.9-3.5,3.7-5.4,5.4c-0.5,0.5-1.8,0.6-2.5,0.3c-7.1-2.8-14-2.8-21.1,0c-0.7,0.3-2,0.1-2.5-0.4c-4.1-3.8-8.1-7.8-12.4-12.1
	c2.3-2.1,4.3-4,6.4-6.1c3.9-3.9,7.8-7.9,11.8-11.7c4.1-4,10-4,14.3,0.1c-4.1,4-8.3,8-12.3,12c3.7,3.7,7.3,7.2,11.1,10.9
	c3.8-3.9,7.9-8.1,12-12.3C262.9,78,263,83.6,259.5,87.5z"/>
</svg>
