<?xml version="1.0" encoding="utf-8"?>
<!-- Generator: Adobe Illustrator 22.0.1, SVG Export Plug-In . SVG Version: 6.00 Build 0)  -->
<svg version="1.1" id="Camada_1" xmlns="http://www.w3.org/2000/svg" xmlns:xlink="http://www.w3.org/1999/xlink" x="0px" y="0px"
	 viewBox="0 0 500 500" style="enable-background:new 0 0 500 500;" xml:space="preserve">
<style type="text/css">
	.st0{fill:#071748;}
</style>
<g>
	<path class="st0" d="M389.6,151.8c-3.3-1.6-6.8-3.2-10.5-4.7c21.1-40.9,11.2-90.9-23.8-120.7c-35-29.8-86-31.5-123-4.2
		c-37,27.4-50.2,76.6-32,118.8c-5.3,2-10.4,4.2-15.5,6.5c-20.2-18.5-52-20.8-65.4-20.9c-8.1,0-15.1,5.8-16.4,13.8
		c-1.2,7.8-1.7,15.6-1.5,23.5c-6.6,0.4-13.2,1.2-19.7,2.5c-8,1.6-13.7,8.7-13.4,16.8c0.3,16.1,4.5,32,12.2,46.2
		c-0.9,1-1.9,2.1-2.8,3.1c-5.3,5.9-10.7,11.9-16.3,17.6c-10.7,8.2-23.5,12.9-37,13.6c-7,1-13.3,4.8-17.4,10.6
		c-4.1,5.8-5.6,13-4.2,20l13.4,67.5c1,5.7,6.5,10.2,16.2,16.5l1.2,0.8c7.3,4.7,15.1,8.5,23.4,11.3c5.2,1.8,10.2,4,15.2,6.5
		c11.3,6.1,21.1,14.6,28.7,25c1.4,1.9,2.8,3.8,4.4,5.6c14.6,15.2,33.3,25.8,53.8,30.4V473c0,13.7,11.1,24.7,24.7,24.7h57.7
		c13.7,0,24.7-11.1,24.7-24.7v-1c6.9,0.3,13.8,0.6,20.8,0.9c3.8,0.1,7.5,0.2,11.3,0.2c5.9,0,11.7-0.2,17.5-0.5v0.5
		c0,13.7,11.1,24.7,24.7,24.7h57.7c13.7,0,24.7-11.1,24.7-24.7V441c43.7-26.5,71.5-73,74.2-124C500.5,249.7,458.2,184.8,389.6,151.8
		z M291.2,19.4c38.5-0.1,71.9,26.4,80.5,63.8c8.6,37.5-9.8,75.9-44.5,92.6c-26.6-5.7-53.9-7.5-81.1-5.1
		c-30.6-19.9-44.4-57.5-34-92.5C222.5,43.3,254.7,19.3,291.2,19.4z M119.4,143.1c17.3-0.4,34.3,4,49.3,12.7
		c-7.9,4.5-15.8,9.6-23.7,15.2c-8.5-3.9-17.6-6.2-26.9-6.8C117.8,157.1,118.3,150,119.4,143.1z M85.1,182.6c8.2-1.6,16.6-2.4,25-2.4
		c0.1,0,0.3,0.1,0.4,0.1s0.5,0,0.8-0.1c15.7-0.8,30.9,5.5,41.2,17.3c6.9,7.1,8.8,17.7,4.9,26.8c-6.7,10.9-18.6,17.5-31.3,17.7
		C107.7,242,87,223.4,85.1,182.6L85.1,182.6z M480.8,316.2c-2.2,42.1-23.7,80.9-58.2,105.2c-0.9-3.6-4.1-6.1-7.8-6.1
		c-4.6,0-8.2,3.7-8.2,8.2V473c0,4.6-3.7,8.2-8.2,8.2h-57.7c-4.6,0-8.2-3.7-8.2-8.2v-24.7c0-4.6-3.7-8.2-8.2-8.2
		c-4.6,0-8.2,3.7-8.2,8.2v7.6c-9.1,0.5-18.5,0.8-28.2,0.5c-7.1-0.2-14.2-0.6-21.3-0.9v-7.2c0-4.6-3.7-8.2-8.2-8.2
		c-4.6,0-8.2,3.7-8.2,8.2V473c0,4.6-3.7,8.2-8.2,8.2H184c-4.6,0-8.2-3.7-8.2-8.2v-41.2c0-4.6-3.7-8.2-8.2-8.2
		c-4.6,0-8.2,3.7-8.2,8.2v8.9c-15.8-3.9-30.1-12.2-41.3-24c-1.3-1.5-2.4-2.9-3.6-4.6c-9.1-12.4-20.8-22.5-34.3-29.8
		c-5.5-2.8-11.2-5.3-17.1-7.4c-7-2.3-13.7-5.5-19.9-9.5l-1.5-1c-3.3-1.9-6.4-4.2-9.2-6.8L19.2,291c-0.5-2.5,0-5.1,1.5-7.2
		c1.4-2,3.7-3.4,6.1-3.7c14.8-2,35-6.7,46.5-18.4c5.8-5.9,11.4-12.1,16.8-18.1l0.7-0.8c9.1,9.8,21.8,15.5,35.2,15.8
		c19.1-0.1,36.6-10.3,46.1-26.8c6.7-14.7,4.2-32-6.5-44.1c-1.8-2.4-3.8-4.6-6-6.6c6-4.1,12-7.9,17.9-11.2c9.9-5.5,20.2-10.2,30.8-14
		c4.2,6.4,9.1,12.3,14.6,17.6c-9.3,1.4-15.2,2.7-16.2,2.9c-4.4,1-7.2,5.5-6.2,9.9c1,4.4,5.5,7.2,9.9,6.2
		c1-0.2,104.3-23.3,166.4,23.3c3.6,2.7,8.8,2,11.5-1.6c2.7-3.6,2-8.8-1.6-11.5c-11.7-8.6-24.6-15.5-38.2-20.3
		c8.2-5.9,15.5-13,21.5-21c4.3,1.8,8.5,3.6,12.3,5.5C445.1,196.8,483.7,255.5,480.8,316.2z"/>
	<path class="st0" d="M266.4,128.4c0-4.6-3.7-8.2-8.2-8.2c-4.6,0-8.2,3.7-8.2,8.2c0,18.3,18.5,33.2,41.2,33.2s41.2-14.8,41.2-33.2
		c0-16-14.2-29.4-33-32.5v-33c9.5,2.4,16.5,8.5,16.5,15.6c0,4.6,3.7,8.2,8.2,8.2c4.6,0,8.2-3.7,8.2-8.2c0-16-14.2-29.4-33-32.5v-1.9
		c0-4.6-3.7-8.2-8.2-8.2c-4.6,0-8.2,3.7-8.2,8.2v2c-18.8,3.1-33,16.5-33,32.5s14.2,29.4,33,32.5v33
		C273.4,141.7,266.4,135.5,266.4,128.4z M315.9,128.4c0,7.1-7,13.3-16.5,15.6v-31.2C308.9,115.2,315.9,121.3,315.9,128.4z
		 M266.4,78.6c0-7.1,7-13.3,16.5-15.6v31.2C273.4,91.8,266.4,85.7,266.4,78.6z"/>
</g>
</svg>
